<svg id="visual" viewBox="0 0 900 450" width="900" height="450" xmlns="http://www.w3.org/2000/svg" xmlns:xlink="http://www.w3.org/1999/xlink" version="1.1"><rect x="0" y="0" width="900" height="450" fill="#884d52"></rect><path d="M0 292L129 292L129 284L257 284L257 276L386 276L386 294L514 294L514 261L643 261L643 255L771 255L771 291L900 291L900 256L900 451L900 451L771 451L771 451L643 451L643 451L514 451L514 451L386 451L386 451L257 451L257 451L129 451L129 451L0 451Z" fill="#86697e"></path><path d="M0 295L129 295L129 319L257 319L257 313L386 313L386 284L514 284L514 330L643 330L643 285L771 285L771 302L900 302L900 327L900 451L900 451L771 451L771 451L643 451L643 451L514 451L514 451L386 451L386 451L257 451L257 451L129 451L129 451L0 451Z" fill="#7a6075"></path><path d="M0 315L129 315L129 329L257 329L257 317L386 317L386 343L514 343L514 322L643 322L643 327L771 327L771 318L900 318L900 312L900 451L900 451L771 451L771 451L643 451L643 451L514 451L514 451L386 451L386 451L257 451L257 451L129 451L129 451L0 451Z" fill="#6e576c"></path><path d="M0 381L129 381L129 353L257 353L257 355L386 355L386 356L514 356L514 349L643 349L643 370L771 370L771 378L900 378L900 342L900 451L900 451L771 451L771 451L643 451L643 451L514 451L514 451L386 451L386 451L257 451L257 451L129 451L129 451L0 451Z" fill="#624f64"></path><path d="M0 402L129 402L129 396L257 396L257 394L386 394L386 393L514 393L514 380L643 380L643 389L771 389L771 379L900 379L900 392L900 451L900 451L771 451L771 451L643 451L643 451L514 451L514 451L386 451L386 451L257 451L257 451L129 451L129 451L0 451Z" fill="#57465b"></path><path d="M0 412L129 412L129 417L257 417L257 412L386 412L386 433L514 433L514 419L643 419L643 423L771 423L771 410L900 410L900 404L900 451L900 451L771 451L771 451L643 451L643 451L514 451L514 451L386 451L386 451L257 451L257 451L129 451L129 451L0 451Z" fill="#4c3e52"></path></svg>