<svg id="visual" viewBox="0 0 900 235" width="900" height="235" xmlns="http://www.w3.org/2000/svg" xmlns:xlink="http://www.w3.org/1999/xlink" version="1.1"><path d="M0 22L10 22C20 22 40 22 60 20.8C80 19.7 100 17.3 120 17C140 16.7 160 18.3 180 18.3C200 18.3 220 16.7 240 17.5C260 18.3 280 21.7 300 22.8C320 24 340 23 360 20.5C380 18 400 14 420 13.2C440 12.3 460 14.7 480 16.3C500 18 520 19 540 18.3C560 17.7 580 15.3 600 14.8C620 14.3 640 15.7 660 15.2C680 14.7 700 12.3 720 10.8C740 9.3 760 8.7 780 11.2C800 13.7 820 19.3 840 20.8C860 22.3 880 19.7 890 18.3L900 17L900 0L890 0C880 0 860 0 840 0C820 0 800 0 780 0C760 0 740 0 720 0C700 0 680 0 660 0C640 0 620 0 600 0C580 0 560 0 540 0C520 0 500 0 480 0C460 0 440 0 420 0C400 0 380 0 360 0C340 0 320 0 300 0C280 0 260 0 240 0C220 0 200 0 180 0C160 0 140 0 120 0C100 0 80 0 60 0C40 0 20 0 10 0L0 0Z" fill="#f6f7f9"></path><path d="M0 50L10 48.8C20 47.7 40 45.3 60 42.3C80 39.3 100 35.7 120 35C140 34.3 160 36.7 180 37.8C200 39 220 39 240 40.2C260 41.3 280 43.7 300 44C320 44.3 340 42.7 360 40.3C380 38 400 35 420 34.2C440 33.3 460 34.7 480 34.7C500 34.7 520 33.3 540 31.8C560 30.3 580 28.7 600 31C620 33.3 640 39.7 660 41.2C680 42.7 700 39.3 720 35.8C740 32.3 760 28.7 780 29.8C800 31 820 37 840 37.7C860 38.3 880 33.7 890 31.3L900 29L900 15L890 16.3C880 17.7 860 20.3 840 18.8C820 17.3 800 11.7 780 9.2C760 6.7 740 7.3 720 8.8C700 10.3 680 12.7 660 13.2C640 13.7 620 12.3 600 12.8C580 13.3 560 15.7 540 16.3C520 17 500 16 480 14.3C460 12.7 440 10.3 420 11.2C400 12 380 16 360 18.5C340 21 320 22 300 20.8C280 19.7 260 16.3 240 15.5C220 14.7 200 16.3 180 16.3C160 16.3 140 14.7 120 15C100 15.3 80 17.7 60 18.8C40 20 20 20 10 20L0 20Z" fill="#c4c9ce"></path><path d="M0 64L10 62.8C20 61.7 40 59.3 60 57.8C80 56.3 100 55.7 120 56.5C140 57.3 160 59.7 180 59.7C200 59.7 220 57.3 240 56.2C260 55 280 55 300 55C320 55 340 55 360 54.2C380 53.3 400 51.7 420 52C440 52.3 460 54.7 480 53.2C500 51.7 520 46.3 540 43.3C560 40.3 580 39.7 600 42.8C620 46 640 53 660 54.5C680 56 700 52 720 50C740 48 760 48 780 50.7C800 53.3 820 58.7 840 58.3C860 58 880 52 890 49L900 46L900 27L890 29.3C880 31.7 860 36.3 840 35.7C820 35 800 29 780 27.8C760 26.7 740 30.3 720 33.8C700 37.3 680 40.7 660 39.2C640 37.7 620 31.3 600 29C580 26.7 560 28.3 540 29.8C520 31.3 500 32.7 480 32.7C460 32.7 440 31.3 420 32.2C400 33 380 36 360 38.3C340 40.7 320 42.3 300 42C280 41.7 260 39.3 240 38.2C220 37 200 37 180 35.8C160 34.7 140 32.3 120 33C100 33.7 80 37.3 60 40.3C40 43.3 20 45.7 10 46.8L0 48Z" fill="#949da5"></path><path d="M0 95L10 100.2C20 105.3 40 115.7 60 115.3C80 115 100 104 120 100.3C140 96.7 160 100.3 180 102.2C200 104 220 104 240 102.2C260 100.3 280 96.7 300 100.7C320 104.7 340 116.3 360 115.5C380 114.7 400 101.3 420 94.7C440 88 460 88 480 88.3C500 88.7 520 89.3 540 90.8C560 92.3 580 94.7 600 94.3C620 94 640 91 660 87.2C680 83.3 700 78.7 720 79.5C740 80.3 760 86.7 780 96.5C800 106.3 820 119.7 840 124.3C860 129 880 125 890 123L900 121L900 44L890 47C880 50 860 56 840 56.3C820 56.7 800 51.3 780 48.7C760 46 740 46 720 48C700 50 680 54 660 52.5C640 51 620 44 600 40.8C580 37.7 560 38.3 540 41.3C520 44.3 500 49.7 480 51.2C460 52.7 440 50.3 420 50C400 49.7 380 51.3 360 52.2C340 53 320 53 300 53C280 53 260 53 240 54.2C220 55.3 200 57.7 180 57.7C160 57.7 140 55.3 120 54.5C100 53.7 80 54.3 60 55.8C40 57.3 20 59.7 10 60.8L0 62Z" fill="#65747d"></path><path d="M0 109L10 113.7C20 118.3 40 127.7 60 127.7C80 127.7 100 118.3 120 116C140 113.7 160 118.3 180 118.7C200 119 220 115 240 111.8C260 108.7 280 106.3 300 111.2C320 116 340 128 360 127.7C380 127.3 400 114.7 420 107.5C440 100.3 460 98.7 480 98.3C500 98 520 99 540 101C560 103 580 106 600 105.5C620 105 640 101 660 97.2C680 93.3 700 89.7 720 90.5C740 91.3 760 96.7 780 107.5C800 118.3 820 134.7 840 140.2C860 145.7 880 140.3 890 137.7L900 135L900 119L890 121C880 123 860 127 840 122.3C820 117.7 800 104.3 780 94.5C760 84.7 740 78.3 720 77.5C700 76.7 680 81.3 660 85.2C640 89 620 92 600 92.3C580 92.7 560 90.3 540 88.8C520 87.3 500 86.7 480 86.3C460 86 440 86 420 92.7C400 99.3 380 112.7 360 113.5C340 114.3 320 102.7 300 98.7C280 94.7 260 98.3 240 100.2C220 102 200 102 180 100.2C160 98.3 140 94.7 120 98.3C100 102 80 113 60 113.3C40 113.7 20 103.3 10 98.2L0 93Z" fill="#5c6c75"></path><path d="M0 182L10 183.5C20 185 40 188 60 190C80 192 100 193 120 191.5C140 190 160 186 180 179.3C200 172.7 220 163.3 240 160.7C260 158 280 162 300 164C320 166 340 166 360 169C380 172 400 178 420 176.3C440 174.7 460 165.3 480 159.8C500 154.3 520 152.7 540 150C560 147.3 580 143.7 600 144.2C620 144.7 640 149.3 660 151.2C680 153 700 152 720 153.2C740 154.3 760 157.7 780 163.7C800 169.7 820 178.3 840 180.3C860 182.3 880 177.7 890 175.3L900 173L900 133L890 135.7C880 138.3 860 143.7 840 138.2C820 132.7 800 116.3 780 105.5C760 94.7 740 89.3 720 88.5C700 87.7 680 91.3 660 95.2C640 99 620 103 600 103.5C580 104 560 101 540 99C520 97 500 96 480 96.3C460 96.7 440 98.3 420 105.5C400 112.7 380 125.3 360 125.7C340 126 320 114 300 109.2C280 104.3 260 106.7 240 109.8C220 113 200 117 180 116.7C160 116.3 140 111.7 120 114C100 116.3 80 125.7 60 125.7C40 125.7 20 116.3 10 111.7L0 107Z" fill="#65747d"></path><path d="M0 194L10 195.5C20 197 40 200 60 201.8C80 203.7 100 204.3 120 202.8C140 201.3 160 197.7 180 190.3C200 183 220 172 240 169.7C260 167.3 280 173.7 300 176C320 178.3 340 176.7 360 180.2C380 183.7 400 192.3 420 192C440 191.7 460 182.3 480 176.5C500 170.7 520 168.3 540 165.2C560 162 580 158 600 159.5C620 161 640 168 660 170.3C680 172.7 700 170.3 720 170.7C740 171 760 174 780 178.7C800 183.3 820 189.7 840 191.3C860 193 880 190 890 188.5L900 187L900 171L890 173.3C880 175.7 860 180.3 840 178.3C820 176.3 800 167.7 780 161.7C760 155.7 740 152.3 720 151.2C700 150 680 151 660 149.2C640 147.3 620 142.7 600 142.2C580 141.7 560 145.3 540 148C520 150.7 500 152.3 480 157.8C460 163.3 440 172.7 420 174.3C400 176 380 170 360 167C340 164 320 164 300 162C280 160 260 156 240 158.7C220 161.3 200 170.7 180 177.3C160 184 140 188 120 189.5C100 191 80 190 60 188C40 186 20 183 10 181.5L0 180Z" fill="#949da5"></path><path d="M0 205L10 206.7C20 208.3 40 211.7 60 213.7C80 215.7 100 216.3 120 215.2C140 214 160 211 180 207.2C200 203.3 220 198.7 240 198.7C260 198.7 280 203.3 300 202.8C320 202.3 340 196.7 360 198.2C380 199.7 400 208.3 420 210C440 211.7 460 206.3 480 202.8C500 199.3 520 197.7 540 195.7C560 193.7 580 191.3 600 192.2C620 193 640 197 660 197C680 197 700 193 720 194.2C740 195.3 760 201.7 780 205.2C800 208.7 820 209.3 840 208.8C860 208.3 880 206.7 890 205.8L900 205L900 185L890 186.5C880 188 860 191 840 189.3C820 187.7 800 181.3 780 176.7C760 172 740 169 720 168.7C700 168.3 680 170.7 660 168.3C640 166 620 159 600 157.5C580 156 560 160 540 163.2C520 166.3 500 168.7 480 174.5C460 180.3 440 189.7 420 190C400 190.3 380 181.7 360 178.2C340 174.7 320 176.3 300 174C280 171.7 260 165.3 240 167.7C220 170 200 181 180 188.3C160 195.7 140 199.3 120 200.8C100 202.3 80 201.7 60 199.8C40 198 20 195 10 193.5L0 192Z" fill="#c4c9ce"></path><path d="M0 236L10 236C20 236 40 236 60 236C80 236 100 236 120 236C140 236 160 236 180 236C200 236 220 236 240 236C260 236 280 236 300 236C320 236 340 236 360 236C380 236 400 236 420 236C440 236 460 236 480 236C500 236 520 236 540 236C560 236 580 236 600 236C620 236 640 236 660 236C680 236 700 236 720 236C740 236 760 236 780 236C800 236 820 236 840 236C860 236 880 236 890 236L900 236L900 203L890 203.8C880 204.7 860 206.3 840 206.8C820 207.3 800 206.7 780 203.2C760 199.7 740 193.3 720 192.2C700 191 680 195 660 195C640 195 620 191 600 190.2C580 189.3 560 191.7 540 193.7C520 195.7 500 197.3 480 200.8C460 204.3 440 209.7 420 208C400 206.3 380 197.7 360 196.2C340 194.7 320 200.3 300 200.8C280 201.3 260 196.7 240 196.7C220 196.7 200 201.3 180 205.2C160 209 140 212 120 213.2C100 214.3 80 213.7 60 211.7C40 209.7 20 206.3 10 204.7L0 203Z" fill="#f6f7f9"></path></svg>